<svg width="87" height="84" viewBox="0 0 87 84" fill="none" xmlns="http://www.w3.org/2000/svg">
<g clip-path="url(#clip0_1_2495)">
<path d="M39.6988 70.5966L43.0798 84.0003C42.5135 84.0228 41.8121 83.5972 40.7508 82.8077C31.7106 76.0796 22.7379 69.2746 15.0329 60.9845C8.48104 53.9358 3.05993 46.2251 0.961621 36.583C-0.17098 31.3794 0.149673 26.3314 2.09797 21.3641C6.49336 10.1487 18.3482 7.38661 27.2327 15.5173C30.338 18.3601 32.8001 21.7091 35.0859 25.212C35.5922 25.9883 35.9222 26.9221 36.8861 27.5615V32.5289L27.3227 37.4062L40.6364 39.8439L33.1357 46.782L42.8866 50.1573L39.6988 56.7204C39.6988 56.7204 34.2608 61.0577 35.1047 61.0464C35.9485 61.0333 43.8242 63.846 43.8242 63.846L39.6988 70.5966Z" fill="#6E6C6C"/>
<path d="M77.9821 34.6327C71.0103 46.6863 63.684 58.5355 56.5152 70.4746C54.4132 73.9756 52.4199 77.5478 50.2259 80.9906C49.4121 82.2694 48.8589 82.8358 48.2026 82.7739L46.605 69.0439L51.5779 62.8915C51.5779 62.8915 44.1372 59.0718 43.299 58.9742C42.4608 58.8749 48.4201 55.2858 48.4201 55.2858L52.4386 49.1971L43.2128 44.5748L51.5573 38.6774L38.6768 34.5183L48.7952 30.9349L49.4458 26.0107C49.4833 26.0463 49.5246 26.0782 49.5659 26.1119C51.9136 18.8325 55.8139 12.6464 61.4319 7.57028C64.5616 4.74065 68.07 2.49608 71.9872 0.97719C80.5024 -2.32498 87.5774 3.07363 86.5967 12.1213C85.706 20.3664 82.0288 27.6308 77.9803 34.6308L77.9821 34.6327Z" fill="#6E6C6C"/>
</g>
<defs>
<clipPath id="clip0_1_2495">
<rect width="86.3815" height="84" fill="white" transform="translate(0.30957)"/>
</clipPath>
</defs>
</svg>
