<svg width="151" height="84" viewBox="0 0 151 84" fill="none" xmlns="http://www.w3.org/2000/svg">
<g clip-path="url(#clip0_1_2484)">
<path d="M116.245 17.5217C116.122 22.4084 113.66 29.3616 110.62 36.1555C105.455 47.6905 97.8531 57.6697 90.199 67.6111C86.5653 72.3317 82.6641 76.8689 80.2847 82.4205C79.4185 84.4407 78.1537 83.5617 76.9477 82.7769C64.7057 74.7974 54.9552 64.5286 48.1104 51.6314C43.8399 43.5833 40.6461 35.1823 41.0188 25.8988C41.3225 18.3373 43.7295 11.5863 49.4752 6.24199C56.6289 -0.411361 65.6943 0.0289976 72.2131 7.39C74.5148 9.9876 76.2972 12.909 78.0934 15.8425C78.504 16.5142 78.6455 17.6913 79.6204 17.6279C80.4175 17.5765 80.5038 16.485 80.8523 15.8339C83.18 11.4766 86.0977 7.59905 90.011 4.50454C95.6963 0.0101495 101.961 -0.755765 108.647 1.77844C113.938 3.78318 116.35 8.06168 116.245 17.5251V17.5217ZM102.356 28.4244C102.255 25.0746 102.141 22.0709 99.0868 20.4722C95.9862 18.8479 92.9528 19.5898 90.1404 21.3307C88.9136 22.0915 87.7696 23.0201 86.705 23.9985C83.9737 26.5122 82.055 29.6478 80.0966 32.7509C78.8387 34.7419 77.7534 34.6939 76.6112 32.6378C76.0936 31.7039 75.6829 30.7084 75.1429 29.7883C72.5012 25.287 69.568 20.9794 65.2733 17.8661C60.782 14.6105 56.32 15.9916 54.1736 21.1199C52.3636 25.4464 52.3446 29.8928 53.461 34.3547C56.7842 47.6391 65.5925 57.2019 75.4155 66.0622C76.4507 66.996 76.9321 66.5728 77.3255 65.4282C78.3073 62.577 80.019 60.149 81.8928 57.8084C85.7698 52.9679 90.3957 48.8059 94.4177 44.1008C98.4225 39.4128 102.137 34.5688 102.353 28.4227L102.356 28.4244Z" fill="#CF362F"/>
<path d="M86.7633 41.6111C86.7909 43.0179 86.4286 44.3475 85.7781 45.5709C83.906 49.0886 81.4248 52.2054 79.054 55.3907C78.2879 56.4188 77.2993 56.8506 76.0431 56.1806C71.8452 53.9377 68.2476 51.0368 65.9752 46.7857C65.2126 45.3602 64.8968 43.7735 65.2143 42.1269C65.9114 38.5218 68.7307 37.2178 71.9004 39.0632C72.5595 39.447 73.2221 39.8754 73.75 40.4117C74.6317 41.3078 75.1925 41.1331 75.9465 40.2044C77.282 38.5577 79.0316 37.4508 81.1608 37.079C84.1907 36.5478 86.7305 38.628 86.7616 41.6128L86.7633 41.6111Z" fill="#CF362F"/>
</g>
<g clip-path="url(#clip1_1_2484)">
<path d="M7.56643 28.7075C10.9506 27.9226 13.1577 28.3979 15.0855 29.927C15.9916 30.6456 16.2921 30.5498 16.5749 29.3931C17.5085 25.5803 20.3059 23.1078 23.6145 23.0288C26.0838 22.9701 27.8723 24.1718 29.1924 26.14C30.6801 28.3588 31.0476 30.8844 31.0415 33.4853C31.0288 38.9403 30.3732 44.3117 28.8429 49.5601C28.263 51.5512 28.0227 53.5927 27.7619 55.6382C27.5314 57.4449 27.0218 57.7369 25.4646 56.8725C20.387 54.0543 14.9735 51.8685 10.0735 48.7234C6.3013 46.3028 3.41816 43.1545 2.43296 38.6433C1.42436 34.0268 4.15064 29.5594 7.56643 28.7075Z" fill="#CF362F"/>
</g>
<g clip-path="url(#clip2_1_2484)">
<path d="M143.434 28.7075C140.049 27.9226 137.842 28.3979 135.914 29.927C135.008 30.6456 134.708 30.5498 134.425 29.3931C133.491 25.5803 130.694 23.1078 127.386 23.0288C124.916 22.9701 123.128 24.1718 121.808 26.14C120.32 28.3588 119.952 30.8844 119.958 33.4853C119.971 38.9403 120.627 44.3117 122.157 49.5601C122.737 51.5512 122.977 53.5927 123.238 55.6382C123.469 57.4449 123.978 57.7369 125.535 56.8725C130.613 54.0543 136.027 51.8685 140.927 48.7234C144.699 46.3028 147.582 43.1545 148.567 38.6433C149.576 34.0268 146.849 29.5594 143.434 28.7075Z" fill="#CF362F"/>
</g>
<defs>
<clipPath id="clip0_1_2484">
<rect width="75.2585" height="83.3219" fill="white" transform="translate(40.9893 0.338867)"/>
</clipPath>
<clipPath id="clip1_1_2484">
<rect width="29.5658" height="34.2695" fill="white" transform="translate(0 28.561) rotate(-13.5422)"/>
</clipPath>
<clipPath id="clip2_1_2484">
<rect width="29.5658" height="34.2695" fill="white" transform="matrix(-0.972198 -0.234162 -0.234162 0.972198 151 28.561)"/>
</clipPath>
</defs>
</svg>
