<svg width="22" height="20" viewBox="0 0 22 20" fill="none" xmlns="http://www.w3.org/2000/svg">
<g clip-path="url(#clip0_2001_520)">
<path d="M7.60143 1.2553L2.84979 6.67712H0.437934C0.196179 6.67712 0 6.88513 0 7.1418V12.8589C0 13.1156 0.195931 13.3239 0.437934 13.3239H2.84979L7.60143 18.7457C7.87241 19.0547 8.35989 18.8512 8.35989 18.4291V1.57193C8.35989 1.14958 7.87241 0.946301 7.60143 1.2553Z" fill="black"/>
<path d="M10.3532 7.16953C9.96559 7.58109 9.96559 8.24827 10.3532 8.65956C11.0498 9.39906 11.0498 10.6024 10.3532 11.3419C9.96559 11.7535 9.96583 12.4207 10.3532 12.832C10.5469 13.0376 10.8011 13.1404 11.055 13.1404C11.3089 13.1404 11.563 13.0376 11.757 12.8317C13.2273 11.2707 13.2273 8.7303 11.757 7.16927C11.3693 6.75771 10.7409 6.75771 10.3532 7.16927V7.16953Z" fill="black"/>
<path d="M14.9872 3.73933C14.5995 3.32777 13.9711 3.32777 13.5837 3.73933C13.1961 4.15089 13.1961 4.81807 13.5837 5.22937C14.7841 6.50376 15.4452 8.19813 15.4452 10.0006C15.4452 11.803 14.7841 13.4974 13.5837 14.7718C13.1961 15.1833 13.1961 15.8505 13.5837 16.2621C13.7774 16.4677 14.0315 16.5706 14.2854 16.5706C14.5393 16.5706 14.7935 16.4677 14.9872 16.2621C16.5625 14.5895 17.43 12.3658 17.43 10.0006C17.43 7.63535 16.5625 5.41161 14.9872 3.73933Z" fill="black"/>
<path d="M18.2186 0.309403C17.831 -0.102158 17.2026 -0.102158 16.8152 0.309403C16.4275 0.720963 16.4275 1.38814 16.8152 1.79944C21.0746 6.3216 21.0746 13.6797 16.8152 18.2019C16.4275 18.6135 16.4275 19.2806 16.8152 19.6922C17.0089 19.8978 17.263 20.0007 17.5169 20.0007C17.7708 20.0007 18.0249 19.8978 18.2186 19.6922C20.657 17.1034 21.9998 13.6616 21.9998 10.0007C21.9998 6.33975 20.6567 2.89816 18.2186 0.309403Z" fill="black"/>
</g>
<defs>
<clipPath id="clip0_2001_520">
<rect width="22" height="20" fill="white"/>
</clipPath>
</defs>
</svg>
